<svg width="71" height="67" viewBox="0 0 71 67" fill="none" xmlns="http://www.w3.org/2000/svg">
<path d="M36.707 0C55.2086 0 70.207 14.9985 70.207 33.5C70.207 52.0015 55.2086 67 36.707 67C36.2231 67 35.7416 66.9871 35.2627 66.9668L35.2666 67H0L11.4697 55.5293C6.32481 49.64 3.20703 41.9344 3.20703 33.5C3.20703 14.9985 18.2055 0 36.707 0ZM21 36.5C19.6193 36.5 18.5 37.6193 18.5 39C18.5 40.3807 19.6193 41.5 21 41.5H52C53.3807 41.5 54.5 40.3807 54.5 39C54.5 37.6193 53.3807 36.5 52 36.5H21ZM21 24.5C19.6193 24.5 18.5 25.6193 18.5 27C18.5 28.3807 19.6193 29.5 21 29.5H52C53.3807 29.5 54.5 28.3807 54.5 27C54.5 25.6193 53.3807 24.5 52 24.5H21Z" fill="white"/>
</svg>
